<?xml version="1.0" encoding="utf-8"?>
<!-- Generator: Adobe Illustrator 24.0.0, SVG Export Plug-In . SVG Version: 6.00 Build 0)  -->
<svg version="1.1" id="Capa_1" xmlns="http://www.w3.org/2000/svg" xmlns:xlink="http://www.w3.org/1999/xlink" x="0px" y="0px"
	 viewBox="0 0 25.6 25.6" style="enable-background:new 0 0 25.6 25.6;" xml:space="preserve">
<style type="text/css">
	.st0{fill-rule:evenodd;clip-rule:evenodd;fill:#706F6F;}
</style>
<title>facebook</title>
<g>
	<path class="st0" d="M12.8,0C9.4,0,6.2,1.4,3.7,3.7C1.3,6.1,0,9.4,0,12.8c0.1,7.1,5.9,12.7,12.9,12.7s12.7-5.8,12.7-12.8
		S19.9,0,12.8,0z M21.1,21.1c-4.6,4.6-12.1,4.6-16.7,0C-0.2,16.5-0.2,9,4.4,4.4c4.6-4.6,12.1-4.6,16.7,0c2.2,2.3,3.5,5.3,3.5,8.4
		C24.6,15.9,23.3,18.9,21.1,21.1z"/>
	<path class="st0" d="M12.8,7C9.6,7,7,9.6,7,12.9c0,2.8,2,5.2,4.8,5.7V14h-1.4v-1.6h1.4v-1.2c-0.1-1.1,0.7-2.1,1.8-2.2
		c0.1,0,0.2,0,0.3,0c0.4,0,0.8,0,1.3,0.1v1.4h-0.9c-0.7,0-0.8,0.3-0.8,0.8v1h1.6L14.9,14h-1.4v4.6c3.2-0.5,5.3-3.6,4.8-6.7
		C17.8,9.1,15.5,7.1,12.8,7z"/>
</g>
</svg>
