<svg id="Capa_1" data-name="Capa 1" xmlns="http://www.w3.org/2000/svg" viewBox="0 0 25.57 25.57"><defs><style>.cls-1{fill:#706f6f;fill-rule:evenodd;}</style></defs><title>hithub</title><path class="cls-1" d="M12.78,0a12.77,12.77,0,1,1-9,3.74,12.75,12.75,0,0,1,9-3.74Zm8.34,4.45a11.79,11.79,0,1,0,3.45,8.33A11.76,11.76,0,0,0,21.12,4.45Z"/><path class="cls-1" d="M11.16,18.59V16.17a1.83,1.83,0,0,1-.93,0,1.79,1.79,0,0,1-1-.85c-.17-.28-.46-.59-.77-.56l-.07-.86a1.77,1.77,0,0,1,1.57,1,1,1,0,0,0,.55.47,1.22,1.22,0,0,0,.72-.06,2,2,0,0,1,.5-1h0a3.38,3.38,0,0,1-3-2.09,3.35,3.35,0,0,1,.52-3.21.1.1,0,0,0,0-.09A2.78,2.78,0,0,1,9.37,7,3,3,0,0,1,11,7.59l.2.13c.09,0,.06,0,.15,0a5.62,5.62,0,0,1,3.08,0h.07l0,0C16,6.82,16,7.11,16.37,7a2.9,2.9,0,0,1,.08,1.87,3.48,3.48,0,0,1,.55,3.3,3.38,3.38,0,0,1-3,2.09h0a1.85,1.85,0,0,1,.54,1.33v3Z"/></svg>