<?xml version="1.0" encoding="utf-8"?>
<!-- Generator: Adobe Illustrator 24.0.0, SVG Export Plug-In . SVG Version: 6.00 Build 0)  -->
<svg version="1.1" id="Capa_1" xmlns="http://www.w3.org/2000/svg" xmlns:xlink="http://www.w3.org/1999/xlink" x="0px" y="0px"
	 viewBox="0 0 31.8 33.1" style="enable-background:new 0 0 31.8 33.1;" xml:space="preserve">
<style type="text/css">
	.st0{fill-rule:evenodd;clip-rule:evenodd;fill:#16BAF9;}
	.st1{fill:#FFFFFF;}
</style>
<title>Logo B</title>
<path class="st0" d="M6.2,4.2h16.2c2.8,0,5.2,2.3,5.2,5.1c0,0.9-0.2,1.7-0.6,2.5c1.4,0.3,2.7,0.8,3.9,1.6c0.6-1.2,0.9-2.6,0.9-4
	c0-5.2-4.2-9.3-9.3-9.3l0,0H2v21.7h4.2V4.2z"/>
<path class="st0" d="M22.4,14.4h-9.9v-3h12V7.2H8.4v18.6h16.2v-4.2h-12v-3.1h9.9c2.8,0.1,5,2.5,4.9,5.4c-0.1,2.7-2.2,4.8-4.9,4.9
	H6.2v-3H2V33h20.4c5.1-0.2,9.2-4.5,9-9.6C31.3,18.6,27.3,14.7,22.4,14.4L22.4,14.4z"/>
<rect y="21.7" class="st1" width="8.4" height="4.2"/>
</svg>
