<svg id="Capa_1" data-name="Capa 1" xmlns="http://www.w3.org/2000/svg" viewBox="0 0 25.57 25.57"><defs><style>.cls-1{fill:#706f6f;fill-rule:evenodd;}</style></defs><title>youtube</title><path class="cls-1" d="M12.78,0a12.77,12.77,0,1,1-9,3.74,12.75,12.75,0,0,1,9-3.74Zm8.34,4.45a11.79,11.79,0,1,0,3.45,8.33A11.76,11.76,0,0,0,21.12,4.45Z"/><path class="cls-1" d="M19.05,16a1.64,1.64,0,0,1-1.37,1.31,33.16,33.16,0,0,1-4.91.36,33.87,33.87,0,0,1-4.91-.36A1.62,1.62,0,0,1,6.49,16a18,18,0,0,1-.27-3.24,18,18,0,0,1,.27-3.23A1.61,1.61,0,0,1,7.86,8.24a33.16,33.16,0,0,1,4.91-.36,33.63,33.63,0,0,1,4.91.36,1.62,1.62,0,0,1,1.37,1.31,18.45,18.45,0,0,1,.3,3.23,23.44,23.44,0,0,1-.3,3.24Zm-7.59-5.53v4.59l3.93-2.3Z"/></svg>